
<svg display="none" xmlns="http://www.w3.org/2000/svg">

  <symbol id="icon-test" class="icon-test" viewBox="0 0 1000 1000" xmlns="http://www.w3.org/2000/svg">
    <path d="M992.5 992.5H7.5V7.5h985v985zM173.7 826.3h652.6V173.7H173.7v652.6z"/>
  </symbol>

  <symbol id="icon-addsmooth" viewBox="0 0 32 32">
    <path d="M31.99 16.006c0 0.794-0.323 1.514-0.842 2.032-0.522 0.522-1.238 0.842-2.032 0.842h-10.282v10.234c0 1.587-1.286 2.877-2.877 2.877-0.794 0-1.514-0.323-2.032-0.842-0.522-0.522-0.842-1.238-0.842-2.032v-10.234h-10.208c-1.59 0-2.877-1.29-2.877-2.877 0-0.794 0.323-1.514 0.842-2.032 0.522-0.522 1.238-0.842 2.032-0.842h10.208v-10.259c0-1.587 1.286-2.877 2.877-2.877 0.794 0.003 1.514 0.323 2.032 0.845 0.522 0.522 0.842 1.238 0.842 2.032v10.259h10.282c1.59 0 2.877 1.286 2.877 2.874z"></path>
  </symbol>

  <symbol id="icon-backarrow_smooth" viewBox="0 0 18 32">
    <path d="M0.925 14.091l13.389-13.389c0.937-0.937 2.458-0.937 3.394 0s0.937 2.458 0 3.394l-11.902 11.902 11.899 11.899c0.937 0.937 0.937 2.457 0 3.394s-2.457 0.937-3.394 0l-13.608-13.608c-0.937-0.937-0.937-2.457 0-3.394 0.071-0.071 0.146-0.137 0.223-0.197z"></path>
  </symbol>

  <symbol id="icon-forarrow_smooth" viewBox="0 0 18 32">
    <path d="M17.486 14.091l-13.389-13.389c-0.937-0.937-2.458-0.937-3.394 0s-0.937 2.458 0 3.394l11.902 11.902-11.899 11.899c-0.937 0.937-0.937 2.457 0 3.394s2.458 0.937 3.394 0l13.608-13.608c0.937-0.937 0.937-2.457 0-3.394-0.071-0.071-0.146-0.137-0.223-0.197z"></path>
  </symbol>

  <symbol id="icon-home" viewBox="0 0 32 32">
    <path d="M32 15.99v16.010h-2.746v-14.87l-13.254-13.254-13.254 13.254v12.125h10.080v-5.248h6.349v7.994h-19.174v-16.010l16.006-15.99 14.48 14.477z"></path>
  </symbol>

  <symbol id="icon-burgermenu_smooth" viewBox="0 0 32 32">
    <path d="M32.038 2.474c0-1.366-1.195-2.474-2.667-2.474h-26.667c-1.472 0-2.667 1.109-2.667 2.474s1.195 2.475 2.667 2.475h26.667c1.472 0 2.667-1.109 2.667-2.474z"></path>
    <path d="M32.038 29.526c0-1.366-1.195-2.474-2.667-2.474h-26.667c-1.472 0-2.667 1.109-2.667 2.474s1.195 2.474 2.667 2.474h26.667c1.472 0 2.667-1.109 2.667-2.474z"></path>
    <path d="M32 16c0-1.366-1.195-2.474-2.667-2.474h-26.667c-1.472 0-2.667 1.109-2.667 2.474s1.195 2.474 2.667 2.474h26.667c1.472 0 2.667-1.109 2.667-2.474z"></path>
  </symbol>

  <symbol id="icon-options" class="icon-options" viewBox="0 0 1000 1000" xmlns="http://www.w3.org/2000/svg">
    <path d="M542.9 588.2v.1h-.1zM1000.1 786.1c0 61.6-49.9 111.5-111.5 111.5-46.4 0-86.2-28.3-103-68.7H97.4v-85.7h688.3c16.8-40.3 56.6-68.7 103-68.7 61.5.1 111.4 50 111.4 111.6zM902.5 151v85.7H214.3c-16.8 40.3-56.6 68.7-103 68.7C49.7 305.4-.2 255.5-.2 193.9S49.7 82.3 111.3 82.3c46.4 0 86.2 28.3 103 68.7h688.2zM902.5 447.1v85.7H534.2c-16.8 40.3-56.5 68.7-103 68.7-46.4 0-86.2-28.3-103-68.7h-231v-85.7h231c16.8-40.3 56.6-68.7 103-68.7s86.2 28.3 103 68.7h368.3z"/>
  </symbol>

  <symbol id="icon-config" class="icon-config" viewBox="0 0 1000 1000" xmlns="http://www.w3.org/2000/svg">
    <path d="M999.4 415.1v1c-46.8 27-93.5 54-140.3 81-.8.5-1.6 1-2.5 1.5-.3.2-.5.4-.8.6-.1.1-.2.2-.3.4-.1.1-.1.3-.2.7 1.3.8 2.6 1.6 4 2.4 11.1 6.4 22.1 12.8 33.2 19.2 33.8 19.5 67.5 39 101.3 58.5 1.6.9 3.5 1.6 4.8 3.4-.1 1.3 0 2.7-.3 4.1l-3.9 18.3c-4.2 18.9-9.2 37.5-15.5 55.9-5.6 16.5-12 32.7-19.3 48.5-7.5 16.4-15.8 32.5-25.2 47.9-7 11.5-14.2 22.7-21.4 34.1-.1.1-.3.2-.4.2-.1.1-.3.1-.5.1-1.2-.3-2.5-.5-3.7-.9-33.8-9-67.6-18.1-101.3-27.1-17.9-4.8-35.8-9.6-53.7-14.3-.8-.2-1.5-.6-2.2.5 14.3 53.4 28.5 106.9 42.9 160.6-1.2.9-2.2 1.6-3.3 2.3-8 5-15.9 10.1-24 15-46.2 28.5-95.6 49.2-148.4 61.9-9.6 2.3-19.3 4.4-28.9 6.7-1.3.3-2.9.3-3.6 1.9h-1c-10-17.3-19.9-34.6-29.9-51.9-17.2-29.8-34.4-59.5-51.6-89.2-.8-1.3-1.3-2.8-2.9-4-1 1.6-1.9 2.9-2.7 4.2-6.1 10.5-12.2 21-18.2 31.5-20.1 34.7-40.1 69.5-60.2 104.2-.9 1.5-1.5 3.2-2.9 4.2-40.2-8.9-52.4-12.1-73.8-19.1-24-7.9-47.3-17.5-69.9-29-23.2-11.8-61.2-34.8-65.2-39.2.2-.9.3-1.8.6-2.8 9.3-34.9 18.7-69.7 28-104.6 4.5-16.7 8.9-33.3 13.3-50 .3-1.2 1.1-2.4-.1-3.6-53.5 14.3-107 28.6-160.6 42.9-1-1.5-1.9-2.8-2.8-4.2-4.3-6.8-8.5-13.5-12.8-20.3-16.6-26.3-30.5-54-42-82.8-10.6-26.6-18.8-54-24.9-82-1.5-6.7-3-13.3-4.6-20.2 9.8-5.6 19.4-11.2 29.1-16.8 9.5-5.5 19.1-11 28.6-16.5 9.7-5.6 19.4-11.2 29-16.8 9.5-5.5 19.1-11 28.6-16.5 9.6-5.6 19.3-11 29.6-17.1C130 490.3 114 481 98 471.8c-16.1-9.3-32.1-18.5-48.1-27.8s-32.1-18.4-48.1-27.9c.3-1.6.6-3 .9-4.4 1.8-7.6 3.6-15.2 5.3-22.9 11.6-51.4 30.8-99.7 57.5-145.1 6.9-11.7 14.2-23.1 21.4-34.7.4-.7.9-1.3 1.5-2.1 1.4.3 2.8.5 4.2.8 29.9 8 59.8 16 89.8 24 21.4 5.7 42.9 11.5 64.3 17.2 1 .3 2.1 1 3.3-.1-.2-1-.4-2-.7-3.1-7.6-28.5-15.2-57.1-22.9-85.6-6.1-22.7-12.1-45.4-18.2-68-.4-1.4-1-2.7-.3-4.4 1.1-.7 2.3-1.5 3.5-2.2 6.8-4.3 13.5-8.5 20.3-12.8 37-23.2 76.4-41.3 118-54.5 21-6.7 42.6-11.4 64-16.2.7-.2 1.4-.6 2.1-.9h1c.1.3.1.6.2.9 16.6 28.8 33.3 57.5 49.9 86.3 10.3 17.8 20.6 35.7 30.9 53.5.8 1.3 1.2 3 3.1 3.9 5.5-9.5 11-19.1 16.5-28.6L534.2 88c5.5-9.5 11-19.1 16.5-28.6 5.6-9.7 11.1-19.4 16.8-29.1 5.5-9.5 10.9-19.1 16.7-28.7 2.1.4 3.9.6 5.8 1l21.9 5.1c45 10.2 87.7 26.3 128.3 48.1 17.9 9.6 34.9 20.6 52.1 31.4.4.2.7.6 1.3 1.2-4.6 17.8-9.5 35.6-14.3 53.5l-14.4 53.7c-4.8 17.9-9.5 35.7-14.2 53.4 1.4 1 2.4.4 3.5.1 16.7-4.5 33.3-8.9 50-13.4 34.7-9.3 69.4-18.5 104.1-27.8 1.4-.4 2.7-1 4.4-.3.7 1.1 1.5 2.2 2.3 3.5 4.3 6.9 8.7 13.8 13 20.7 10.1 16 19.1 32.5 27.3 49.5 20.4 42.4 34.5 86.9 43 133.2.4-.2.8.2 1.1.6zM378 93.5c-6.2.8-26.9 8.1-44.5 15.7-17.2 7.4-29.3 13.4-33.1 16.5.3 1.4.7 3 1.1 4.5 9.5 35.6 19 71.3 28.6 106.9 3.5 13.3 3.7 26.5 0 39.8-10.6 38.3-50.2 63.3-91.5 52.3-35.8-9.5-71.6-19.1-107.4-28.7-1.7-.4-3.3-1.1-5-1-8.7 12.8-29.6 63.4-31.9 77.2 1.2.8 2.5 1.6 3.9 2.4 13.6 7.8 27.1 15.7 40.7 23.5 18.8 10.9 37.8 21.5 56.4 32.7 23.2 14 35.6 34.9 36.6 62 .8 20.5-6.1 38.3-19.9 53.3-5.7 6.2-12.4 10.9-19.7 15.1-31.3 18-62.6 36.1-93.8 54.1-1.5.9-3 1.8-4.6 2.8 8.2 26.9 18.8 52.5 32 77.1 1-.1 1.8-.2 2.6-.4 4.9-1.3 9.9-2.7 14.8-4 32.1-8.6 64.2-17.2 96.3-25.7 9-2.4 18.2-3.1 27.6-1.8 19.4 2.5 35.6 11.1 48.1 26.1 16.6 20 21.4 42.9 14.9 67.9-9.4 35.9-19.1 71.6-28.6 107.4-.4 1.5-.7 3.1-1.1 4.8 24.7 13.2 50.3 23.8 77.2 31.9 1-1.5 1.8-2.9 2.6-4.2 5.3-9.1 10.6-18.3 15.8-27.4 13.4-23.2 26.7-46.6 40.3-69.7 21.6-36.8 68.8-47.6 104.4-25.3 10.8 6.8 19.1 15.9 25.4 26.9 18.2 31.6 36.4 63.1 54.6 94.7.9 1.6 2 3.2 2.9 4.8 14.3-2.4 68.5-25 77.4-32.3-.4-1.8-.8-3.6-1.3-5.5-9.4-35.2-18.8-70.4-28.3-105.5-3.3-12.1-3.8-24.3-1.1-36.5 7.3-32.9 36.2-58.1 72-58.7 7.6-.1 15 1.1 22.2 3 33.9 9.1 67.9 18.2 101.8 27.3 2.9.8 5.8 1.5 8.9 2.2.7-1.1 1.3-2 1.8-3 12.1-23.1 22-47.2 29.7-72.1.2-.7.3-1.5.4-2.3-2-1.2-3.7-2.2-5.5-3.3-31.5-18.2-63.2-36.3-94.6-54.7-21.4-12.5-34-31-37.2-55.7-2.8-21.4 3-40.5 16.7-57.2 5.9-7.3 13.2-12.9 21.3-17.6 31.7-18.2 63.4-36.6 95.1-54.9 1.5-.9 3.2-1.5 4.2-2.9-4.8-19.9-23.7-64.3-32.2-77-1.4.3-3 .6-4.5 1-35.8 9.6-71.6 19.1-107.4 28.7-10.3 2.8-20.8 3.4-31.3 1.7-20.1-3.3-36.3-13-48.3-29.3-13.9-18.8-18-39.9-12.5-62.7 2.3-9.5 4.9-18.8 7.5-28.3 7.3-27.5 14.7-54.9 22-82.4.3-1 .3-2.1.4-3-.5-.4-.8-.6-1-.8-23.5-12.5-47.9-22.6-73.3-30.5-.9-.3-1.8-.3-2.9-.4-1.1 1.8-2.1 3.4-3.1 5-18.3 31.7-36.4 63.5-54.9 95-13.8 23.5-34.6 36.3-61.9 37.6-20.3 1-38-5.6-53.2-19.1-6.7-5.9-11.7-13-16.1-20.7-17.9-31.2-35.9-62.3-53.9-93.4-.9-1.1-1.8-2.6-2.6-3.9z"/>
    <path d="M700.3 499.8c.3 109.6-89.5 199.5-199.7 199.5-108.3 0-199.8-87.9-199.6-200.1C301.2 388 392 299 502.4 300c111 1 198.5 91.9 197.9 199.8zM500.9 379.9c-66.1 0-119.7 53.8-119.9 119.4-.1 65.8 53.4 119.7 119.3 120 65.9.2 119.8-53.6 120.1-119.2.3-64.9-52.4-119.9-119.5-120.2z"/>
  </symbol>

 <symbol id="icon-anfasser" class="icon-anfasser" viewBox="0 0 1000 1000" xmlns="http://www.w3.org/2000/svg">
    <circle cx="342" cy="175.4" r="92.8"/>
    <circle cx="342" cy="500.5" r="92.8"/>
    <circle cx="342" cy="824.6" r="92.8"/>
    <circle cx="660" cy="175.4" r="92.8"/>
    <circle cx="660" cy="500.5" r="92.8"/>
    <circle cx="660" cy="824.6" r="92.8"/>
 </symbol>

  <symbol id="icon-design_edit" class="icon-design_edit" viewBox="0 0 800 800" xmlns="http://www.w3.org/2000/svg">
    <path d="M254 800.1H.4V543.8l14-12.8c15.5-15.3 265.9-265.8 288.7-288.8l29.7-38.1 258.4 258.4-31.9 31.8c-1.8 1.8-289.2 289.7-292.1 292.6L254 800.1zm-163.6-90h126.3c46.8-46.9 184.5-184.8 247.2-247.6L337 335.6 223.1 449.5 90.3 582.3v127.8zM15 530.4s-.1.1-.3.2l.3-.2zM655.7 398.8L624 367.1c-42.2-42.1-85.1-85-126.6-126.5-21.4-21.4-42.7-42.8-64.1-64.1l-31.8-31.8L545.6.6l31.8 31.9C640.2 95.4 704.2 159.4 766 221.2l33.9 33.9-31.9 31.7c-11.5 11.4-22.9 22.9-34.4 34.4-15.1 15.1-30.7 30.7-46.1 46l-31.8 31.6zM528.8 144.7l32.3 32.3 94.7 94.7 14.1-14.1 2.7-2.7c-42-42-84.6-84.6-127-127.1l-16.8 16.9z"/>
  </symbol>

 <symbol id="icon-add" class="icon-add" viewBox="0 0 1000 1000" xmlns="http://www.w3.org/2000/svg">
    <path d="M1000 455.7v90H545V1000h-90V545.7H0v-90h455V0h90v455.7z"/>
 </symbol>

  <symbol id="icon-morearrow" class="icon-morearrow" viewBox="0 0 32 32">
    <path d="M32 9.395l-16 16-16-16 2.048-2.048 13.952 13.949 13.949-13.949z"></path>
  </symbol>

</svg>